<?xml version="1.0" encoding="UTF-8"?><svg id="Layer_2" xmlns="http://www.w3.org/2000/svg" viewBox="0 0 337.65 156.24"><defs><style>.cls-1{fill:#eb1c24;}</style></defs><g id="Layer_3"><path class="cls-1" d="m285.13,69.44s-2.19,6.86,4.93,11.68c7.12,4.83,12.4-1.66,13.37-3.87s2.82-8.31-2-13-15.19-2.46-16.29,5.19Z"/><path class="cls-1" d="m110.26,7.63s-2.19,6.86,4.93,11.68c7.12,4.83,12.4-1.66,13.37-3.87s2.82-8.31-2-13S111.36-.02,110.26,7.63Z"/><path class="cls-1" d="m55.05,42.61l-31.96-.19L0,145.48l18.34.38,8.36-33.8h18.67l6.49,32.17,19.52-.55-16.33-101.08Zm-23.84,52.54l7.81-31.63,3.66,31.63h-11.48Z"/><path class="cls-1" d="m273.92,86.2s-1.33-12.38-8.52-18.2c-9.43-7.62-24.85-6.47-28.28-5.7-3.43.76-20.03,4.51-20.08,24.51l12.72-.23s1.6-10.94,12.94-10.87c14.88.09,13.46,14.45,13.46,14.45,0,0-17.54-4.58-28.51,9.08-5.9,7.34-7.94,32.27,2.11,38.77,15.2,9.82,28.68-2.03,28.68-2.03l-.04,4.65,16.4-.15-.86-54.26Zm-19.8,35.61c-1.57,1.83-8.5,6.51-13.92-.18-5.41-6.68-1.32-12.61-1.32-12.61,3.28-7,13.84-6.12,17.1-.23,3.25,5.89-.28,11.19-1.86,13.02Z"/><path class="cls-1" d="m135.9,115.63c-1.23-13.17-11.58-22.05-20.69-22.71-10.15-.74-19.88,8.47-19.88,8.47l-1.11-60.6-17.11.44,2.6,105.37h15.95l.14-3.37s16.12,4.29,27.01-1.99c10.89-6.29,14.33-12.44,13.1-25.61Zm-17.31,9.96c-1.44,2.09-8.17,7.73-14.56,1.35-6.39-6.38-2.77-13.02-2.77-13.02,2.65-7.67,13.78-7.91,17.83-2.13,4.05,5.79.94,11.71-.5,13.8Z"/><polygon class="cls-1" points="111.21 36.23 127.45 35.3 128.45 81.23 111.24 81.59 111.21 36.23"/><polygon class="cls-1" points="286.87 94.91 303.11 93.98 304.11 139.91 286.9 140.27 286.87 94.91"/><polygon class="cls-1" points="319.52 33.62 335.75 32.68 337.65 140.9 320.44 141.26 319.52 33.62"/><path class="cls-1" d="m206.59,137.82c1.52-7.75-5.43-103.55-5.43-103.55l-16.65-.21.21,5.01c-3.27-1.68-10.93-4.07-24.76-.33-19.41,5.25-16.69,32.97-14.88,38.05,1.94,5.46,5.13,14.87,20.52,16.2,10.41.9,17.28-2.76,21.18-5.82l1.79,41.81s-.21,7.74-7.02,7.23c-6.81-.5-12.66-1.07-11.88-14.74l-17.13-1.66s-4.95,21.58,4.03,29.8c8.99,8.22,28.82,7.44,35.73,4.76,6.91-2.68,12.76-8.82,14.28-16.57Zm-25.62-65.69c-1.57,1.83-8.5,6.51-13.92-.18-5.41-6.68-1.32-12.61-1.32-12.61,3.28-7,13.84-6.12,17.1-.23,3.25,5.89-.28,11.19-1.86,13.02Z"/></g></svg>