<?xml version="1.0" encoding="UTF-8"?><svg id="Layer_2" xmlns="http://www.w3.org/2000/svg" viewBox="0 0 11.37 15.76"><defs><style>.cls-1{fill:#1b1b1f;}</style></defs><g id="Layer_1-2"><path class="cls-1" d="m3.72,14.34c-.12-.06-.21-.06-.19-.17.04-.18-.01-.33-.11-.48-.08-.12-.06-.26-.04-.39.01-.07.03-.15.02-.22-.03-.21-.1-.42-.12-.63-.02-.26-.1-.51-.04-.78.04-.19-.08-.36-.18-.51-.04-.06-.19-.08-.28-.06-.28.04-.48-.15-.71-.24-.04-.02-.07-.07-.1-.11-.03-.04-.05-.1-.09-.11-.25-.08-.34-.32-.48-.51-.31-.42-.52-.89-.76-1.35-.03-.06-.06-.12-.1-.18-.1-.13-.14-.28-.15-.45,0-.12-.06-.24-.11-.36-.04-.09-.09-.17-.07-.28.02-.07-.03-.16-.06-.24C0,6.89-.04,6.5.04,6.1c.02-.12.11-.23-.02-.35-.03-.03,0-.11,0-.17,0-.08.02-.17,0-.25-.01-.09,0-.15.09-.17.09-.03.09-.07.03-.15-.11-.13-.11-.14,0-.27.07-.08.09-.15.09-.25,0-.12.03-.23.07-.34.09-.25.26-.47.34-.73.04-.13.15-.22.18-.38.02-.11.19-.18.22-.33,0-.03.06-.06.09-.08.08-.05.13-.11.13-.21,0-.12.07-.2.15-.29.14-.14.28-.3.43-.43.08-.08.19-.13.3-.18.18-.09.36-.19.5-.33.03-.03.08-.05.12-.04.17.05.25-.06.34-.17.04-.05.1-.09.15-.14.09-.1.18-.15.31-.06.07.05.13.03.15-.06.03-.14.14-.16.26-.21.28-.1.55-.15.84-.1.07.01.14-.03.21-.05.04-.01.08-.06.11-.06.38.05.67-.19,1-.27.17-.04.35-.05.52.03.12.06.26.06.39.1.2.07.39.15.58.23.06.03.12.07.15.13.06.1.14.12.25.15.25.06.48.15.67.34.06.07.14.14.22.17.34.13.57.39.81.64.11.12.22.24.33.35.24.24.33.57.48.86.11.2.2.41.36.58.07.08.09.2.12.3.01.03,0,.07.02.1.21.46.25.96.32,1.45.02.16.02.32,0,.48-.03.25-.08.5-.12.75-.01.08-.04.17-.04.25,0,.36-.1.7-.24,1.03-.1.24-.22.48-.31.72-.13.34-.37.57-.61.81-.02.02-.05.04-.08.07-.21.21-.38.65-.68.74-.28.09-.23.34-.12.62.04.09-.05.19-.02.29.02.08.03.16.03.24,0,.02-.02.03-.01.05.07.45-.06.67,0,1.12,0,.05.02.1.04.15.04.08.03.16,0,.24-.03.1-.06.21-.02.3.1.26.05.54.08.8.03.22.01.44.02.66,0,.17-.16.39-.33.41-.05,0-.1,0-.15,0-.34-.05-.65.04-.96.16-.05.02-.13.05-.17.03-.1-.05-.16-.05-.25.02-.03.02-.15-.03-.19-.08-.14-.19-.12-.42-.13-.64,0-.04.05-.09.09-.11.07-.04.15-.08.23-.1.25-.06.51-.12.77-.17.23-.05.27-.11.24-.36-.01-.11,0-.22,0-.33,0-.08.02-.18,0-.25-.07-.16-.02-.32,0-.47.04-.26.04-.51,0-.77-.04-.29-.02-.35-.05-.64,0-.06.01-.13-.01-.17-.09-.14-.06-.27-.04-.42.02-.13,0-.15-.14-.15-.11,0-.2.02-.29.12-.15.15-.34.26-.5.4-.12.1-.29.15-.36.31-.02.04-.13-.18-.18-.16-.11.04-.24.05-.33.11-.1.06-.19.11-.3.03-.03-.02-.1,0-.13.02-.19.15-.39.19-.62.11-.06-.02-.13-.02-.2-.02-.28,0-.53-.07-.77-.2-.1-.05-.2-.09-.31-.12-.1-.03-.19.02-.2.13-.01.09,0,.19.02.28.04.25.07.5-.11.72-.05.06-.03.12.07.15.04,0,.09.05.1.09.08.41.15.83.22,1.24.01.08,0,.17.02.25,0,.07.01.15.04.22.05.13.13.25-.02.36-.02.01,0,.06,0,.09.04.2-.02.33-.21.41-.14.06-.28.1-.44.06-.08-.02-.19,0-.27.04-.17.06-.33.11-.52.1-.08,0-.16.06-.24.06-.27,0-.5.12-.75.19-.17.05-.2,0-.2-.19,0-.09-.06-.18-.08-.28-.01-.09.05-.18-.03-.26-.07-.07-.03-.12.06-.14.15-.03.3-.05.45-.08.03,0,.07,0,.1-.02.32-.19.69-.21,1.04-.3.14-.04.29-.08.49-.13Zm3.3-3.73s-.05,0,0,0c.13.01.27-.46.39-.33.01.01.06,0,.09-.02.06-.03.11-.08.08-.16-.03-.09.01-.13.11-.14.15-.03.29-.07.43-.14.15-.07.29-.18.44-.25.09-.04.22-.09.28-.05.08.06.08-.19.12-.26.15-.23.38-.38.57-.57.16-.16.33-.29.43-.49.05-.1.12-.16.24-.13.08.02.11-.01.08-.1-.02-.06-.04-.14-.01-.18.08-.12.2-.22.15-.39,0-.02.02-.05.03-.07.11-.26.12-.54.17-.81.02-.1.03-.2.14-.24.04-.02.09-.07.01-.11-.1-.05-.1-.13-.08-.22.03-.22.09-.44-.05-.65-.03-.05-.02-.12-.02-.17,0-.25-.06-.48-.15-.71-.05-.13-.07-.28-.11-.42-.02-.07-.05-.14-.08-.21-.15-.28-.32-.54-.43-.83-.08-.2-.22-.34-.36-.47-.21-.19-.42-.36-.59-.59-.05-.06-.11-.1-.17-.14-.25-.17-.52-.29-.79-.4-.35-.14-.69-.31-1.04-.47-.05-.02-.11-.05-.17-.06-.4-.03-.79,0-1.18.13-.12.04-.24.07-.36.11-.39.12-.79.21-1.16.37-.43.18-.83.43-1.24.65-.03.02-.05.04-.08.06-.35.31-.69.63-.95,1.01-.12.18-.23.37-.34.56-.31.52-.5,1.07-.54,1.67-.03.48-.07.96-.1,1.44,0,.1.01.2.04.3.08.3.14.61.28.9.17.36.29.74.49,1.08.13.23.25.47.42.69.13.18.27.32.47.4.16.07.33.15.49.2.14.05.3.04.44.1.17.07.34.07.52.08.18.01.39.01.54.09.2.11.4.12.61.14.1,0,.2.04.29.05,0-.1.16.07.17-.03m-1.79,3.73s-.07-.04-.11-.07c0,.01-.02.04-.02.04.03.03.07.06.11.09,0-.01.01-.03.02-.06Zm4.05-4.47s0,.05,0,.07c0,0,.02.01.04.02,0-.02,0-.04,0-.06,0,0-.02-.01-.04-.03Zm-4.88,4.6s-.03.01-.04.02c0,.01.02.03.02.03.01,0,.03-.01.04-.02,0,0-.01-.02-.02-.03ZM4.57.57s0-.02,0-.02c-.01,0-.03.01-.04.02,0,0,0,.02,0,.02.01,0,.03-.01.04-.02Zm4.18,13.87s0-.02,0-.02c-.01,0-.03,0-.04-.01,0,0,0,.02,0,.02.01,0,.03,0,.04.01Zm-4.93-3.6s-.02,0-.03.01c0,0,.01,0,.02,0,0,0,0,0,.01-.02Zm2.45-.09v-.02s-.02,0-.02,0h.02Z"/><path class="cls-1" d="m6.15,7.13c.17-.06.32-.19.47-.3.11-.08.21-.16.36-.16.12,0,.23.03.33.12.06.06.13.11.2.16.16.12.18.23.06.39-.08.11-.17.22-.28.29-.36.22-.73.43-1.15.52-.42.09-.84.14-1.26.03-.06-.01-.12-.01-.18,0-.48.08-.84-.11-1.13-.47-.06-.07-.13-.13-.2-.19-.17-.16-.22-.51-.09-.71.05-.07.11-.08.17-.02.16.15.33.3.48.45.06.06.12.12.21.06.03-.02.08-.03.09-.02.14.13.2.12.35.16.02,0,.2.01.21.02.14.12.17.03.5.07m1.7-.55s-.03.02-.03.03c0,.01.02.02.03.04.01,0,.03-.02.03-.03,0-.01-.02-.02-.03-.04Zm-.34.05s-.02.02-.03.02c0,0,0,.02,0,.02.01,0,.02,0,.04,0,0-.01-.01-.02-.02-.04Zm-2.83.67s0-.01,0-.02c0,0-.02,0-.03.01,0,0,0,.01.01.01,0,0,.01,0,.02,0Zm2.6-.37h-.01s0,0,0,0h.02Z"/><path class="cls-1" d="m3.26,3.98s.33-.02.35,0c.32.17.44.28.63.63.09.18.05.36-.13.49-.22.16-.47.24-.74.29-.02,0-.06,0-.07,0-.1-.09-.23-.17-.28-.28-.12-.27-.2-.56-.17-.86.02-.19.13-.25.4-.26Z"/><path class="cls-1" d="m7.73,4.21s-.23-.24-.26-.25c-.35-.1-.51-.1-.89.03-.19.07-.28.23-.24.44.05.27.18.5.34.71.01.02.04.04.06.04.13,0,.28.03.39-.02.27-.12.53-.27.71-.51.12-.15.08-.28-.11-.46Z"/></g></svg>