<?xml version="1.0" encoding="UTF-8"?><svg id="Layer_2" xmlns="http://www.w3.org/2000/svg" viewBox="0 0 334.21 111.93"><defs><style>.cls-1{fill:#eb1c24;}</style></defs><g id="Layer_3"><polygon class="cls-1" points="178.9 1.25 195.12 0 199.12 108.16 181.92 108.85 178.9 1.25"/><polygon class="cls-1" points="0 8.12 30.65 111.93 49.98 111.83 58.77 68.23 71.47 109.74 92.24 108.99 114.71 7.18 96.88 7.18 79.98 71.46 70.04 49.7 47.06 49.16 39.3 76.5 21.15 7.18 0 8.12"/><path class="cls-1" d="m165.09,79.85s2.14-16.32-4.83-23.26c-6.97-6.94-18.07-7.35-23.92-7.33-5.85.02-24.06,2.52-27.58,23.88-3.52,21.36,2.42,29.3,8.49,34.36,6.32,5.26,23.27,5.07,32.11,2.36,8.84-2.71,14.33-8.9,15.35-21.14l-16.88-.06s-.83,8.75-11.94,9.3c-6.06.3-9.67-5.89-10.14-8.56-.5-2.84.68-8.03.68-8.03l38.67-1.5Zm-26.33-19.68c9.81.26,8.85,8.66,8.85,8.66l-19.3,1.2s.64-10.12,10.45-9.86Z"/><path class="cls-1" d="m263.59,68.65s1.85-12.19-5.12-19.12c-6.97-6.94-18.07-7.35-23.92-7.33-5.85.02-24.06,2.52-27.58,23.88-3.52,21.36,2.42,29.3,8.49,34.36,6.32,5.26,23.27,5.07,32.11,2.36,8.84-2.71,14.33-8.9,15.35-21.14l-16.88-.06s-.83,8.75-11.94,9.3c-6.06.3-9.67-5.89-10.14-8.56-.05-.29-.08-.6-.1-.93-.11-.45-.21-.92-.3-1.42-1.31-7.72,1.07-14.41,5.59-20.04h0c1.53-1.96,4-3.59,8.01-3.48,6.52.17,8.28,3.94,8.73,6.45.71,2.12.87,2.13.87,5.35l16.84.39Z"/><path class="cls-1" d="m310.87,55.72c-8.68.14-14.97,4.99-18.13,8.11l-2.34-63.15-16.21,1.25,3.02,107.6,17.2-.69-.14-3.91c.04-10.73,3.41-24.73,9.05-29.83,3.4-3.09,10.13-4.27,13.08,1.89,2.95,6.15,0,32.54,0,32.54l15.94.47,1.71-15.46c1.78-34.62-10.36-39.04-23.17-38.83Z"/></g></svg>